<mxfile host="app.diagrams.net" modified="2024-05-21T02:18:18.830Z" agent="Mozilla/5.0 (Windows NT 10.0; Win64; x64) AppleWebKit/537.36 (KHTML, like Gecko) Chrome/123.0.0.0 Safari/537.36 OPR/109.0.0.0" etag="xmnm008kGStMW5DF5mQ4" version="24.4.4" type="device">
  <diagram name="Page-1" id="Iadyr_EgU2UZ567ymqcu">
    <mxGraphModel dx="2243" dy="758" grid="1" gridSize="10" guides="1" tooltips="1" connect="1" arrows="1" fold="1" page="1" pageScale="1" pageWidth="850" pageHeight="1100" math="0" shadow="0">
      <root>
        <mxCell id="0" />
        <mxCell id="1" parent="0" />
        <mxCell id="r2SIsIyJ15snJ-ib-OKO-3" value="UsuÃ¡rio" style="swimlane;fontStyle=1;align=center;verticalAlign=top;childLayout=stackLayout;horizontal=1;startSize=26;horizontalStack=0;resizeParent=1;resizeParentMax=0;resizeLast=0;collapsible=1;marginBottom=0;whiteSpace=wrap;html=1;" parent="1" vertex="1">
          <mxGeometry x="-160" y="450" width="160" height="100" as="geometry" />
        </mxCell>
        <mxCell id="r2SIsIyJ15snJ-ib-OKO-4" value="-startURL" style="text;strokeColor=none;fillColor=none;align=left;verticalAlign=top;spacingLeft=4;spacingRight=4;overflow=hidden;rotatable=0;points=[[0,0.5],[1,0.5]];portConstraint=eastwest;whiteSpace=wrap;html=1;" parent="r2SIsIyJ15snJ-ib-OKO-3" vertex="1">
          <mxGeometry y="26" width="160" height="26" as="geometry" />
        </mxCell>
        <mxCell id="r2SIsIyJ15snJ-ib-OKO-5" value="" style="line;strokeWidth=1;fillColor=none;align=left;verticalAlign=middle;spacingTop=-1;spacingLeft=3;spacingRight=3;rotatable=0;labelPosition=right;points=[];portConstraint=eastwest;strokeColor=inherit;" parent="r2SIsIyJ15snJ-ib-OKO-3" vertex="1">
          <mxGeometry y="52" width="160" height="8" as="geometry" />
        </mxCell>
        <mxCell id="r2SIsIyJ15snJ-ib-OKO-6" value="+start()&lt;div&gt;+crawl()&lt;/div&gt;" style="text;strokeColor=none;fillColor=none;align=left;verticalAlign=top;spacingLeft=4;spacingRight=4;overflow=hidden;rotatable=0;points=[[0,0.5],[1,0.5]];portConstraint=eastwest;whiteSpace=wrap;html=1;" parent="r2SIsIyJ15snJ-ib-OKO-3" vertex="1">
          <mxGeometry y="60" width="160" height="40" as="geometry" />
        </mxCell>
        <mxCell id="r2SIsIyJ15snJ-ib-OKO-7" value="URL Frontier" style="swimlane;fontStyle=1;align=center;verticalAlign=top;childLayout=stackLayout;horizontal=1;startSize=26;horizontalStack=0;resizeParent=1;resizeParentMax=0;resizeLast=0;collapsible=1;marginBottom=0;whiteSpace=wrap;html=1;" parent="1" vertex="1">
          <mxGeometry x="90" y="450" width="170" height="120" as="geometry" />
        </mxCell>
        <mxCell id="r2SIsIyJ15snJ-ib-OKO-8" value="-urlQueue" style="text;strokeColor=none;fillColor=none;align=left;verticalAlign=top;spacingLeft=4;spacingRight=4;overflow=hidden;rotatable=0;points=[[0,0.5],[1,0.5]];portConstraint=eastwest;whiteSpace=wrap;html=1;" parent="r2SIsIyJ15snJ-ib-OKO-7" vertex="1">
          <mxGeometry y="26" width="170" height="26" as="geometry" />
        </mxCell>
        <mxCell id="r2SIsIyJ15snJ-ib-OKO-9" value="" style="line;strokeWidth=1;fillColor=none;align=left;verticalAlign=middle;spacingTop=-1;spacingLeft=3;spacingRight=3;rotatable=0;labelPosition=right;points=[];portConstraint=eastwest;strokeColor=inherit;" parent="r2SIsIyJ15snJ-ib-OKO-7" vertex="1">
          <mxGeometry y="52" width="170" height="8" as="geometry" />
        </mxCell>
        <mxCell id="r2SIsIyJ15snJ-ib-OKO-10" value="+addURL()&lt;div&gt;+getNextURL()&lt;/div&gt;&lt;div&gt;+prioritizeURLs()&lt;/div&gt;" style="text;strokeColor=none;fillColor=none;align=left;verticalAlign=top;spacingLeft=4;spacingRight=4;overflow=hidden;rotatable=0;points=[[0,0.5],[1,0.5]];portConstraint=eastwest;whiteSpace=wrap;html=1;" parent="r2SIsIyJ15snJ-ib-OKO-7" vertex="1">
          <mxGeometry y="60" width="170" height="60" as="geometry" />
        </mxCell>
        <mxCell id="r2SIsIyJ15snJ-ib-OKO-11" value="Servidor DNS" style="swimlane;fontStyle=0;childLayout=stackLayout;horizontal=1;startSize=26;fillColor=none;horizontalStack=0;resizeParent=1;resizeParentMax=0;resizeLast=0;collapsible=1;marginBottom=0;whiteSpace=wrap;html=1;" parent="1" vertex="1">
          <mxGeometry x="90" y="620" width="170" height="52" as="geometry" />
        </mxCell>
        <mxCell id="r2SIsIyJ15snJ-ib-OKO-12" value="+resolve()" style="text;strokeColor=none;fillColor=none;align=left;verticalAlign=top;spacingLeft=4;spacingRight=4;overflow=hidden;rotatable=0;points=[[0,0.5],[1,0.5]];portConstraint=eastwest;whiteSpace=wrap;html=1;" parent="r2SIsIyJ15snJ-ib-OKO-11" vertex="1">
          <mxGeometry y="26" width="170" height="26" as="geometry" />
        </mxCell>
        <mxCell id="r2SIsIyJ15snJ-ib-OKO-15" value="URLFilter" style="swimlane;fontStyle=1;align=center;verticalAlign=top;childLayout=stackLayout;horizontal=1;startSize=26;horizontalStack=0;resizeParent=1;resizeParentMax=0;resizeLast=0;collapsible=1;marginBottom=0;whiteSpace=wrap;html=1;" parent="1" vertex="1">
          <mxGeometry x="370" y="1092" width="160" height="52" as="geometry" />
        </mxCell>
        <mxCell id="r2SIsIyJ15snJ-ib-OKO-19" value="Cache" style="swimlane;fontStyle=1;align=center;verticalAlign=top;childLayout=stackLayout;horizontal=1;startSize=26;horizontalStack=0;resizeParent=1;resizeParentMax=0;resizeLast=0;collapsible=1;marginBottom=0;whiteSpace=wrap;html=1;" parent="1" vertex="1">
          <mxGeometry x="90" y="730" width="170" height="100" as="geometry" />
        </mxCell>
        <mxCell id="r2SIsIyJ15snJ-ib-OKO-20" value="-cacheStorage" style="text;strokeColor=none;fillColor=none;align=left;verticalAlign=top;spacingLeft=4;spacingRight=4;overflow=hidden;rotatable=0;points=[[0,0.5],[1,0.5]];portConstraint=eastwest;whiteSpace=wrap;html=1;" parent="r2SIsIyJ15snJ-ib-OKO-19" vertex="1">
          <mxGeometry y="26" width="170" height="26" as="geometry" />
        </mxCell>
        <mxCell id="r2SIsIyJ15snJ-ib-OKO-21" value="" style="line;strokeWidth=1;fillColor=none;align=left;verticalAlign=middle;spacingTop=-1;spacingLeft=3;spacingRight=3;rotatable=0;labelPosition=right;points=[];portConstraint=eastwest;strokeColor=inherit;" parent="r2SIsIyJ15snJ-ib-OKO-19" vertex="1">
          <mxGeometry y="52" width="170" height="8" as="geometry" />
        </mxCell>
        <mxCell id="r2SIsIyJ15snJ-ib-OKO-22" value="+store()&lt;div&gt;+retrieve()&lt;/div&gt;" style="text;strokeColor=none;fillColor=none;align=left;verticalAlign=top;spacingLeft=4;spacingRight=4;overflow=hidden;rotatable=0;points=[[0,0.5],[1,0.5]];portConstraint=eastwest;whiteSpace=wrap;html=1;" parent="r2SIsIyJ15snJ-ib-OKO-19" vertex="1">
          <mxGeometry y="60" width="170" height="40" as="geometry" />
        </mxCell>
        <mxCell id="r2SIsIyJ15snJ-ib-OKO-27" value="Storage" style="swimlane;fontStyle=1;align=center;verticalAlign=top;childLayout=stackLayout;horizontal=1;startSize=26;horizontalStack=0;resizeParent=1;resizeParentMax=0;resizeLast=0;collapsible=1;marginBottom=0;whiteSpace=wrap;html=1;" parent="1" vertex="1">
          <mxGeometry x="340" y="924" width="190" height="86" as="geometry" />
        </mxCell>
        <mxCell id="KCuraymVWd1KRv9GwXVt-16" style="edgeStyle=orthogonalEdgeStyle;rounded=0;orthogonalLoop=1;jettySize=auto;html=1;exitX=0;exitY=0.5;exitDx=0;exitDy=0;" parent="r2SIsIyJ15snJ-ib-OKO-27" source="r2SIsIyJ15snJ-ib-OKO-28" edge="1">
          <mxGeometry relative="1" as="geometry">
            <mxPoint x="-90" y="39" as="targetPoint" />
          </mxGeometry>
        </mxCell>
        <mxCell id="r2SIsIyJ15snJ-ib-OKO-28" value="+save" style="text;strokeColor=none;fillColor=none;align=left;verticalAlign=top;spacingLeft=4;spacingRight=4;overflow=hidden;rotatable=0;points=[[0,0.5],[1,0.5]];portConstraint=eastwest;whiteSpace=wrap;html=1;" parent="r2SIsIyJ15snJ-ib-OKO-27" vertex="1">
          <mxGeometry y="26" width="190" height="26" as="geometry" />
        </mxCell>
        <mxCell id="r2SIsIyJ15snJ-ib-OKO-29" value="" style="line;strokeWidth=1;fillColor=none;align=left;verticalAlign=middle;spacingTop=-1;spacingLeft=3;spacingRight=3;rotatable=0;labelPosition=right;points=[];portConstraint=eastwest;strokeColor=inherit;" parent="r2SIsIyJ15snJ-ib-OKO-27" vertex="1">
          <mxGeometry y="52" width="190" height="8" as="geometry" />
        </mxCell>
        <mxCell id="r2SIsIyJ15snJ-ib-OKO-30" value="+retrieve(url)" style="text;strokeColor=none;fillColor=none;align=left;verticalAlign=top;spacingLeft=4;spacingRight=4;overflow=hidden;rotatable=0;points=[[0,0.5],[1,0.5]];portConstraint=eastwest;whiteSpace=wrap;html=1;" parent="r2SIsIyJ15snJ-ib-OKO-27" vertex="1">
          <mxGeometry y="60" width="190" height="26" as="geometry" />
        </mxCell>
        <mxCell id="r2SIsIyJ15snJ-ib-OKO-31" value="Protocol Fetcher" style="swimlane;fontStyle=0;childLayout=stackLayout;horizontal=1;startSize=26;fillColor=none;horizontalStack=0;resizeParent=1;resizeParentMax=0;resizeLast=0;collapsible=1;marginBottom=0;whiteSpace=wrap;html=1;" parent="1" vertex="1">
          <mxGeometry x="340" y="490" width="140" height="52" as="geometry" />
        </mxCell>
        <mxCell id="r2SIsIyJ15snJ-ib-OKO-33" value="+fetch(url):Document&lt;div&gt;&lt;br&gt;&lt;/div&gt;" style="text;strokeColor=none;fillColor=none;align=left;verticalAlign=top;spacingLeft=4;spacingRight=4;overflow=hidden;rotatable=0;points=[[0,0.5],[1,0.5]];portConstraint=eastwest;whiteSpace=wrap;html=1;" parent="r2SIsIyJ15snJ-ib-OKO-31" vertex="1">
          <mxGeometry y="26" width="140" height="26" as="geometry" />
        </mxCell>
        <mxCell id="r2SIsIyJ15snJ-ib-OKO-35" value="FTP" style="swimlane;fontStyle=1;align=center;verticalAlign=top;childLayout=stackLayout;horizontal=1;startSize=26;horizontalStack=0;resizeParent=1;resizeParentMax=0;resizeLast=0;collapsible=1;marginBottom=0;whiteSpace=wrap;html=1;" parent="1" vertex="1">
          <mxGeometry x="570" y="620" width="160" height="52" as="geometry" />
        </mxCell>
        <mxCell id="r2SIsIyJ15snJ-ib-OKO-38" value="+fetch(url)" style="text;strokeColor=none;fillColor=none;align=left;verticalAlign=top;spacingLeft=4;spacingRight=4;overflow=hidden;rotatable=0;points=[[0,0.5],[1,0.5]];portConstraint=eastwest;whiteSpace=wrap;html=1;" parent="r2SIsIyJ15snJ-ib-OKO-35" vertex="1">
          <mxGeometry y="26" width="160" height="26" as="geometry" />
        </mxCell>
        <mxCell id="r2SIsIyJ15snJ-ib-OKO-39" value="SMTP" style="swimlane;fontStyle=1;align=center;verticalAlign=top;childLayout=stackLayout;horizontal=1;startSize=26;horizontalStack=0;resizeParent=1;resizeParentMax=0;resizeLast=0;collapsible=1;marginBottom=0;whiteSpace=wrap;html=1;" parent="1" vertex="1">
          <mxGeometry x="570" y="500" width="160" height="52" as="geometry" />
        </mxCell>
        <mxCell id="r2SIsIyJ15snJ-ib-OKO-42" value="+ fetch(url)" style="text;strokeColor=none;fillColor=none;align=left;verticalAlign=top;spacingLeft=4;spacingRight=4;overflow=hidden;rotatable=0;points=[[0,0.5],[1,0.5]];portConstraint=eastwest;whiteSpace=wrap;html=1;" parent="r2SIsIyJ15snJ-ib-OKO-39" vertex="1">
          <mxGeometry y="26" width="160" height="26" as="geometry" />
        </mxCell>
        <mxCell id="r2SIsIyJ15snJ-ib-OKO-43" value="HTTP" style="swimlane;fontStyle=1;align=center;verticalAlign=top;childLayout=stackLayout;horizontal=1;startSize=26;horizontalStack=0;resizeParent=1;resizeParentMax=0;resizeLast=0;collapsible=1;marginBottom=0;whiteSpace=wrap;html=1;" parent="1" vertex="1">
          <mxGeometry x="580" y="380" width="160" height="52" as="geometry" />
        </mxCell>
        <mxCell id="r2SIsIyJ15snJ-ib-OKO-46" value="+ fetch(url)" style="text;strokeColor=none;fillColor=none;align=left;verticalAlign=top;spacingLeft=4;spacingRight=4;overflow=hidden;rotatable=0;points=[[0,0.5],[1,0.5]];portConstraint=eastwest;whiteSpace=wrap;html=1;" parent="r2SIsIyJ15snJ-ib-OKO-43" vertex="1">
          <mxGeometry y="26" width="160" height="26" as="geometry" />
        </mxCell>
        <mxCell id="r2SIsIyJ15snJ-ib-OKO-47" value="ContentSeenModule" style="swimlane;fontStyle=1;align=center;verticalAlign=top;childLayout=stackLayout;horizontal=1;startSize=26;horizontalStack=0;resizeParent=1;resizeParentMax=0;resizeLast=0;collapsible=1;marginBottom=0;whiteSpace=wrap;html=1;" parent="1" vertex="1">
          <mxGeometry x="90" y="910" width="160" height="100" as="geometry" />
        </mxCell>
        <mxCell id="r2SIsIyJ15snJ-ib-OKO-48" value="-docFingerprints" style="text;strokeColor=none;fillColor=none;align=left;verticalAlign=top;spacingLeft=4;spacingRight=4;overflow=hidden;rotatable=0;points=[[0,0.5],[1,0.5]];portConstraint=eastwest;whiteSpace=wrap;html=1;" parent="r2SIsIyJ15snJ-ib-OKO-47" vertex="1">
          <mxGeometry y="26" width="160" height="26" as="geometry" />
        </mxCell>
        <mxCell id="r2SIsIyJ15snJ-ib-OKO-49" value="" style="line;strokeWidth=1;fillColor=none;align=left;verticalAlign=middle;spacingTop=-1;spacingLeft=3;spacingRight=3;rotatable=0;labelPosition=right;points=[];portConstraint=eastwest;strokeColor=inherit;" parent="r2SIsIyJ15snJ-ib-OKO-47" vertex="1">
          <mxGeometry y="52" width="160" height="8" as="geometry" />
        </mxCell>
        <mxCell id="r2SIsIyJ15snJ-ib-OKO-50" value="+isSeen()&lt;div&gt;+addFingerprint()&lt;/div&gt;" style="text;strokeColor=none;fillColor=none;align=left;verticalAlign=top;spacingLeft=4;spacingRight=4;overflow=hidden;rotatable=0;points=[[0,0.5],[1,0.5]];portConstraint=eastwest;whiteSpace=wrap;html=1;" parent="r2SIsIyJ15snJ-ib-OKO-47" vertex="1">
          <mxGeometry y="60" width="160" height="40" as="geometry" />
        </mxCell>
        <mxCell id="r2SIsIyJ15snJ-ib-OKO-51" value="LinkExtractor" style="swimlane;fontStyle=1;align=center;verticalAlign=top;childLayout=stackLayout;horizontal=1;startSize=26;horizontalStack=0;resizeParent=1;resizeParentMax=0;resizeLast=0;collapsible=1;marginBottom=0;whiteSpace=wrap;html=1;" parent="1" vertex="1">
          <mxGeometry x="-110" y="1120" width="160" height="52" as="geometry" />
        </mxCell>
        <mxCell id="r2SIsIyJ15snJ-ib-OKO-52" value="+extractLinks()" style="text;strokeColor=none;fillColor=none;align=left;verticalAlign=top;spacingLeft=4;spacingRight=4;overflow=hidden;rotatable=0;points=[[0,0.5],[1,0.5]];portConstraint=eastwest;whiteSpace=wrap;html=1;" parent="r2SIsIyJ15snJ-ib-OKO-51" vertex="1">
          <mxGeometry y="26" width="160" height="26" as="geometry" />
        </mxCell>
        <mxCell id="r2SIsIyJ15snJ-ib-OKO-55" value="URLDeDup" style="swimlane;fontStyle=1;align=center;verticalAlign=top;childLayout=stackLayout;horizontal=1;startSize=26;horizontalStack=0;resizeParent=1;resizeParentMax=0;resizeLast=0;collapsible=1;marginBottom=0;whiteSpace=wrap;html=1;" parent="1" vertex="1">
          <mxGeometry x="-110" y="1250" width="160" height="86" as="geometry" />
        </mxCell>
        <mxCell id="r2SIsIyJ15snJ-ib-OKO-56" value="-seenURLs" style="text;strokeColor=none;fillColor=none;align=left;verticalAlign=top;spacingLeft=4;spacingRight=4;overflow=hidden;rotatable=0;points=[[0,0.5],[1,0.5]];portConstraint=eastwest;whiteSpace=wrap;html=1;" parent="r2SIsIyJ15snJ-ib-OKO-55" vertex="1">
          <mxGeometry y="26" width="160" height="26" as="geometry" />
        </mxCell>
        <mxCell id="r2SIsIyJ15snJ-ib-OKO-57" value="" style="line;strokeWidth=1;fillColor=none;align=left;verticalAlign=middle;spacingTop=-1;spacingLeft=3;spacingRight=3;rotatable=0;labelPosition=right;points=[];portConstraint=eastwest;strokeColor=inherit;" parent="r2SIsIyJ15snJ-ib-OKO-55" vertex="1">
          <mxGeometry y="52" width="160" height="8" as="geometry" />
        </mxCell>
        <mxCell id="r2SIsIyJ15snJ-ib-OKO-58" value="+deduplicate()" style="text;strokeColor=none;fillColor=none;align=left;verticalAlign=top;spacingLeft=4;spacingRight=4;overflow=hidden;rotatable=0;points=[[0,0.5],[1,0.5]];portConstraint=eastwest;whiteSpace=wrap;html=1;" parent="r2SIsIyJ15snJ-ib-OKO-55" vertex="1">
          <mxGeometry y="60" width="160" height="26" as="geometry" />
        </mxCell>
        <mxCell id="KCuraymVWd1KRv9GwXVt-1" value="DatProcessor" style="swimlane;fontStyle=0;childLayout=stackLayout;horizontal=1;startSize=26;fillColor=none;horizontalStack=0;resizeParent=1;resizeParentMax=0;resizeLast=0;collapsible=1;marginBottom=0;whiteSpace=wrap;html=1;" parent="1" vertex="1">
          <mxGeometry x="90" y="1080" width="160" height="52" as="geometry" />
        </mxCell>
        <mxCell id="KCuraymVWd1KRv9GwXVt-2" value="+process()" style="text;strokeColor=none;fillColor=none;align=left;verticalAlign=top;spacingLeft=4;spacingRight=4;overflow=hidden;rotatable=0;points=[[0,0.5],[1,0.5]];portConstraint=eastwest;whiteSpace=wrap;html=1;" parent="KCuraymVWd1KRv9GwXVt-1" vertex="1">
          <mxGeometry y="26" width="160" height="26" as="geometry" />
        </mxCell>
        <mxCell id="KCuraymVWd1KRv9GwXVt-5" style="edgeStyle=orthogonalEdgeStyle;rounded=0;orthogonalLoop=1;jettySize=auto;html=1;exitX=0;exitY=0.5;exitDx=0;exitDy=0;entryX=1;entryY=0.5;entryDx=0;entryDy=0;" parent="1" source="r2SIsIyJ15snJ-ib-OKO-8" target="r2SIsIyJ15snJ-ib-OKO-4" edge="1">
          <mxGeometry relative="1" as="geometry" />
        </mxCell>
        <mxCell id="KCuraymVWd1KRv9GwXVt-6" value="1" style="text;html=1;align=center;verticalAlign=middle;resizable=0;points=[];autosize=1;strokeColor=none;fillColor=none;" parent="1" vertex="1">
          <mxGeometry x="-5" y="460" width="30" height="30" as="geometry" />
        </mxCell>
        <mxCell id="KCuraymVWd1KRv9GwXVt-7" value="0..+" style="text;html=1;align=center;verticalAlign=middle;resizable=0;points=[];autosize=1;strokeColor=none;fillColor=none;" parent="1" vertex="1">
          <mxGeometry x="55" y="460" width="40" height="30" as="geometry" />
        </mxCell>
        <mxCell id="KCuraymVWd1KRv9GwXVt-8" style="edgeStyle=orthogonalEdgeStyle;rounded=0;orthogonalLoop=1;jettySize=auto;html=1;exitX=0;exitY=0.5;exitDx=0;exitDy=0;entryX=1;entryY=0.1;entryDx=0;entryDy=0;entryPerimeter=0;" parent="1" source="r2SIsIyJ15snJ-ib-OKO-31" target="r2SIsIyJ15snJ-ib-OKO-10" edge="1">
          <mxGeometry relative="1" as="geometry" />
        </mxCell>
        <mxCell id="KCuraymVWd1KRv9GwXVt-9" value="1" style="text;html=1;align=center;verticalAlign=middle;resizable=0;points=[];autosize=1;strokeColor=none;fillColor=none;" parent="1" vertex="1">
          <mxGeometry x="260" y="490" width="30" height="30" as="geometry" />
        </mxCell>
        <mxCell id="KCuraymVWd1KRv9GwXVt-10" value="1" style="text;html=1;align=center;verticalAlign=middle;resizable=0;points=[];autosize=1;strokeColor=none;fillColor=none;" parent="1" vertex="1">
          <mxGeometry x="310" y="490" width="30" height="30" as="geometry" />
        </mxCell>
        <mxCell id="KCuraymVWd1KRv9GwXVt-11" style="edgeStyle=orthogonalEdgeStyle;rounded=0;orthogonalLoop=1;jettySize=auto;html=1;entryX=0.5;entryY=0;entryDx=0;entryDy=0;" parent="1" target="r2SIsIyJ15snJ-ib-OKO-47" edge="1">
          <mxGeometry relative="1" as="geometry">
            <mxPoint x="170" y="830" as="sourcePoint" />
            <Array as="points">
              <mxPoint x="170" y="833" />
            </Array>
          </mxGeometry>
        </mxCell>
        <mxCell id="KCuraymVWd1KRv9GwXVt-12" style="edgeStyle=orthogonalEdgeStyle;rounded=0;orthogonalLoop=1;jettySize=auto;html=1;exitX=0;exitY=0.5;exitDx=0;exitDy=0;entryX=1;entryY=0.5;entryDx=0;entryDy=0;" parent="1" source="r2SIsIyJ15snJ-ib-OKO-46" target="r2SIsIyJ15snJ-ib-OKO-31" edge="1">
          <mxGeometry relative="1" as="geometry" />
        </mxCell>
        <mxCell id="KCuraymVWd1KRv9GwXVt-14" style="edgeStyle=orthogonalEdgeStyle;rounded=0;orthogonalLoop=1;jettySize=auto;html=1;exitX=0;exitY=0.5;exitDx=0;exitDy=0;entryX=1.014;entryY=0.077;entryDx=0;entryDy=0;entryPerimeter=0;" parent="1" source="r2SIsIyJ15snJ-ib-OKO-38" target="r2SIsIyJ15snJ-ib-OKO-33" edge="1">
          <mxGeometry relative="1" as="geometry" />
        </mxCell>
        <mxCell id="KCuraymVWd1KRv9GwXVt-15" style="edgeStyle=orthogonalEdgeStyle;rounded=0;orthogonalLoop=1;jettySize=auto;html=1;exitX=0;exitY=0.5;exitDx=0;exitDy=0;entryX=1.014;entryY=0.115;entryDx=0;entryDy=0;entryPerimeter=0;" parent="1" source="r2SIsIyJ15snJ-ib-OKO-42" target="r2SIsIyJ15snJ-ib-OKO-33" edge="1">
          <mxGeometry relative="1" as="geometry" />
        </mxCell>
        <mxCell id="KCuraymVWd1KRv9GwXVt-17" value="1" style="text;html=1;align=center;verticalAlign=middle;resizable=0;points=[];autosize=1;strokeColor=none;fillColor=none;" parent="1" vertex="1">
          <mxGeometry x="245" y="928" width="30" height="30" as="geometry" />
        </mxCell>
        <mxCell id="KCuraymVWd1KRv9GwXVt-18" value="1" style="text;html=1;align=center;verticalAlign=middle;resizable=0;points=[];autosize=1;strokeColor=none;fillColor=none;" parent="1" vertex="1">
          <mxGeometry x="310" y="928" width="30" height="30" as="geometry" />
        </mxCell>
        <mxCell id="KCuraymVWd1KRv9GwXVt-19" style="edgeStyle=orthogonalEdgeStyle;rounded=0;orthogonalLoop=1;jettySize=auto;html=1;exitX=0.494;exitY=1.075;exitDx=0;exitDy=0;entryX=0.5;entryY=0;entryDx=0;entryDy=0;exitPerimeter=0;" parent="1" source="r2SIsIyJ15snJ-ib-OKO-50" target="KCuraymVWd1KRv9GwXVt-1" edge="1">
          <mxGeometry relative="1" as="geometry">
            <Array as="points">
              <mxPoint x="170" y="1045" />
            </Array>
          </mxGeometry>
        </mxCell>
        <mxCell id="KCuraymVWd1KRv9GwXVt-20" style="edgeStyle=orthogonalEdgeStyle;rounded=0;orthogonalLoop=1;jettySize=auto;html=1;exitX=1;exitY=0.5;exitDx=0;exitDy=0;entryX=-0.031;entryY=0.077;entryDx=0;entryDy=0;entryPerimeter=0;" parent="1" source="KCuraymVWd1KRv9GwXVt-2" target="r2SIsIyJ15snJ-ib-OKO-18" edge="1">
          <mxGeometry relative="1" as="geometry" />
        </mxCell>
        <mxCell id="r2SIsIyJ15snJ-ib-OKO-18" value="+ filter()" style="text;strokeColor=none;fillColor=none;align=left;verticalAlign=top;spacingLeft=4;spacingRight=4;overflow=hidden;rotatable=0;points=[[0,0.5],[1,0.5]];portConstraint=eastwest;whiteSpace=wrap;html=1;" parent="1" vertex="1">
          <mxGeometry x="370" y="1118" width="160" height="26" as="geometry" />
        </mxCell>
        <mxCell id="KCuraymVWd1KRv9GwXVt-21" style="edgeStyle=orthogonalEdgeStyle;rounded=0;orthogonalLoop=1;jettySize=auto;html=1;exitX=0;exitY=0.25;exitDx=0;exitDy=0;entryX=0.463;entryY=-0.019;entryDx=0;entryDy=0;entryPerimeter=0;" parent="1" source="KCuraymVWd1KRv9GwXVt-1" target="r2SIsIyJ15snJ-ib-OKO-51" edge="1">
          <mxGeometry relative="1" as="geometry" />
        </mxCell>
        <mxCell id="KCuraymVWd1KRv9GwXVt-22" style="edgeStyle=orthogonalEdgeStyle;rounded=0;orthogonalLoop=1;jettySize=auto;html=1;exitX=0.506;exitY=1.038;exitDx=0;exitDy=0;exitPerimeter=0;" parent="1" source="r2SIsIyJ15snJ-ib-OKO-52" target="r2SIsIyJ15snJ-ib-OKO-55" edge="1">
          <mxGeometry relative="1" as="geometry">
            <Array as="points">
              <mxPoint x="-29" y="1177" />
              <mxPoint x="-30" y="1177" />
            </Array>
          </mxGeometry>
        </mxCell>
        <mxCell id="TDSoLX_YDCAJgma3wWqU-1" style="edgeStyle=orthogonalEdgeStyle;rounded=0;orthogonalLoop=1;jettySize=auto;html=1;entryX=0.5;entryY=0;entryDx=0;entryDy=0;" edge="1" parent="1" target="r2SIsIyJ15snJ-ib-OKO-11">
          <mxGeometry relative="1" as="geometry">
            <mxPoint x="175" y="570" as="sourcePoint" />
            <Array as="points">
              <mxPoint x="178" y="573" />
              <mxPoint x="175" y="573" />
            </Array>
          </mxGeometry>
        </mxCell>
        <mxCell id="TDSoLX_YDCAJgma3wWqU-2" style="edgeStyle=orthogonalEdgeStyle;rounded=0;orthogonalLoop=1;jettySize=auto;html=1;exitX=0.5;exitY=1.115;exitDx=0;exitDy=0;entryX=0.5;entryY=0;entryDx=0;entryDy=0;exitPerimeter=0;" edge="1" parent="1" source="r2SIsIyJ15snJ-ib-OKO-12" target="r2SIsIyJ15snJ-ib-OKO-19">
          <mxGeometry relative="1" as="geometry">
            <Array as="points">
              <mxPoint x="175" y="690" />
              <mxPoint x="175" y="690" />
            </Array>
          </mxGeometry>
        </mxCell>
      </root>
    </mxGraphModel>
  </diagram>
</mxfile>
